HIERARCHY
ROOT Hips
{
	OFFSET -3.958830 18.904000 13.208200
	CHANNELS 6 Xposition Yposition Zposition Zrotation Yrotation Xrotation 
	JOINT LHipJoint
	{
		OFFSET 0.000000 0.000000 0.000000
		CHANNELS 3 Zrotation Yrotation Xrotation
		JOINT LeftUpLeg
		{
			OFFSET 1.800000 -1.400000 0.085000
			CHANNELS 3 Zrotation Yrotation Xrotation
			JOINT LeftLeg
			{
				OFFSET 2.215000 -6.000000 0.000000
				CHANNELS 3 Zrotation Yrotation Xrotation
				JOINT LeftFoot
				{
					OFFSET 2.500000 -6.900000 0.000000
					CHANNELS 3 Zrotation Yrotation Xrotation
					JOINT LeftToeBase
					{
						OFFSET 0.200000 -0.500000 1.950000
						CHANNELS 3 Zrotation Yrotation Xrotation
						End Site
						{
							OFFSET 0.000000 0.000000 0.000000
						}
					}
				}
			}
		}
	}
	JOINT RHipJoint
	{
		OFFSET 0.000000 0.000000 0.000000
		CHANNELS 3 Zrotation Yrotation Xrotation
		JOINT RightUpLeg
		{
			OFFSET -1.800000 -1.400000 0.085000
			CHANNELS 3 Zrotation Yrotation Xrotation
			JOINT RightLeg
			{
				OFFSET -2.215000 -6.000000 0.000000
				CHANNELS 3 Zrotation Yrotation Xrotation
				JOINT RightFoot
				{
					OFFSET -2.500000 -6.900000 0.000000
					CHANNELS 3 Zrotation Yrotation Xrotation
					JOINT RightToeBase
					{
						OFFSET -0.200000 -0.500000 1.950000
						CHANNELS 3 Zrotation Yrotation Xrotation
						End Site
						{
							OFFSET 0.000000 0.000000 0.000000
						}
					}
				}
			}
		}
	}
	JOINT LowerBack
	{
		OFFSET 0.000000 0.000000 0.000000
		CHANNELS 3 Zrotation Yrotation Xrotation
		JOINT Spine
		{
			OFFSET -0.087000 1.940000 -0.288900
			CHANNELS 3 Zrotation Yrotation Xrotation
			JOINT Spine1
			{
				OFFSET 0.000000 1.950000 0.060000
				CHANNELS 3 Zrotation Yrotation Xrotation
				JOINT Neck
				{
					OFFSET 0.000000 0.000000 0.000000
					CHANNELS 3 Zrotation Yrotation Xrotation
					JOINT Neck1
					{
						OFFSET 0.000000 1.600000 0.340000
						CHANNELS 3 Zrotation Yrotation Xrotation
						JOINT Head
						{
							OFFSET 0.000000 1.667000 -0.240000
							CHANNELS 3 Zrotation Yrotation Xrotation
							End Site
							{
								OFFSET 0.000000 0.000000 0.000000
							}
						}
					}
				}
				JOINT LeftShoulder
				{
					OFFSET 0.000000 0.000000 0.000000
					CHANNELS 3 Zrotation Yrotation Xrotation
					JOINT LeftArm
					{
						OFFSET 2.700000 1.550000 -0.730000
						CHANNELS 3 Zrotation Yrotation Xrotation
						JOINT LeftForeArm
						{
							OFFSET 5.450000 0.000000 0.000000
							CHANNELS 3 Zrotation Yrotation Xrotation
							JOINT LeftHand
							{
								OFFSET 3.450000 0.000000 0.000000
								CHANNELS 3 Zrotation Yrotation Xrotation
								JOINT LeftHandIndex1
								{
									OFFSET 0.750000 0.000000 0.000000
									CHANNELS 3 Zrotation Yrotation Xrotation
									End Site
									{
										OFFSET 0.000000 0.000000 0.000000
									}
								}
							}
						}
					}
				}
				JOINT RightShoulder
				{
					OFFSET 0.000000 0.000000 0.000000
					CHANNELS 3 Zrotation Yrotation Xrotation
					JOINT RightArm
					{
						OFFSET -2.700000 1.550000 -0.730000
						CHANNELS 3 Zrotation Yrotation Xrotation
						JOINT RightForeArm
						{
							OFFSET -5.450000 0.000000 0.000000
							CHANNELS 3 Zrotation Yrotation Xrotation
							JOINT RightHand
							{
								OFFSET -3.450000 0.000000 0.000000
								CHANNELS 3 Zrotation Yrotation Xrotation
								JOINT RightHandIndex1
								{
									OFFSET -0.750000 0.000000 0.000000
									CHANNELS 3 Zrotation Yrotation Xrotation
									End Site
									{
										OFFSET 0.000000 0.000000 0.000000
									}
								}
							}
						}
					}
				}
			}
		}
	}
}
MOTION
Frames: 6
Frame Time: 0.016667
0.085490 18.447420 2.009550 178.336349 65.187274 178.127868 -15.217530 13.230346 3.581980 3.684407 -1.785725 -18.868983 -14.928308 8.658033 16.261919 0.380979 4.539775 2.920461 -0.389100 -0.460580 -0.035590 18.025814 -11.247639 2.940167 -1.886271 -2.097736 0.164264 5.731587 -6.200398 14.933692 -0.283074 -4.395329 2.870326 -0.372420 0.114630 0.183060 -2.291414 -0.489928 -7.661161 4.101783 13.089384 9.364121 21.788026 13.661741 -3.102219 -5.446365 14.253033 -15.008580 25.944107 -1.667680 35.195039 -3.257640 13.243530 8.218090 19.095919 -1.241861 3.909908 21.477344 5.130014 0.774684 20.292684 -12.913899 0.453721 -4.552615 3.867991 0.006680 0.232620 0.011240 -0.125090 -7.407810 -12.400043 4.692302 61.506636 -16.070120 -16.924095 -16.433383 27.794659 -3.116887 2.593722 -1.377940 -0.051990 -0.216750 0.105360 -0.072240 
0.052180 18.405030 2.012870 175.860253 65.882270 175.566122 -15.268173 13.171066 3.691095 4.707721 -1.915564 -19.381761 -17.269135 9.495891 16.823310 0.470627 4.954368 2.759666 -0.364600 -0.438590 -0.022700 17.988415 -11.162309 2.842240 -3.037988 -2.038692 0.483224 6.051529 -6.314761 14.818370 -0.301607 -4.428416 2.855940 -0.367550 0.093800 0.183980 -2.255385 -0.787586 -7.729612 3.418415 12.587478 9.546868 22.027545 12.528700 -1.795901 -5.246231 13.371998 -14.403860 23.813293 -1.459228 37.456446 -3.355360 13.238250 8.195700 16.960283 -1.977688 4.721977 21.999342 6.608578 0.988226 20.646781 -9.738377 0.478074 -4.524223 3.669707 0.021030 0.211120 0.027810 -0.119850 -5.290049 -9.971372 4.724806 60.328808 -15.298311 -16.230793 -16.545610 24.300226 -2.800955 2.651844 -1.359818 -0.038370 -0.220220 0.095940 -0.072360 
0.028670 18.367020 2.027380 173.734890 66.347117 173.759897 -15.293054 13.049244 3.799462 5.345582 -2.153120 -20.272627 -19.001311 10.205399 17.580357 0.544453 5.296500 2.635446 -0.375560 -0.453930 -0.024230 17.977545 -11.149822 2.774967 -3.268911 -1.900914 0.022857 5.794685 -6.243740 15.036505 -0.287402 -4.386657 2.867451 -0.379640 0.093640 0.186060 -2.319939 -0.729226 -7.722557 2.576668 12.761729 9.746160 21.306187 12.581193 -1.748176 -5.224471 13.483184 -14.382028 24.035848 -1.593639 37.198611 -3.339440 13.195620 8.262110 16.878685 -2.158479 4.964184 22.062222 6.706447 1.011131 20.614946 -8.981914 0.481626 -4.509478 3.617894 0.021040 0.211090 0.026800 -0.126670 -5.293602 -9.719394 4.728203 62.040650 -15.181266 -16.359158 -15.506442 22.334911 -2.496028 2.684253 -1.330758 -0.037320 -0.224080 0.102120 -0.074360 
0.000900 18.346780 2.025950 173.061046 67.346994 172.888528 -15.291028 13.127298 3.866605 5.668121 -2.231470 -20.609674 -19.351681 10.580773 18.418361 0.577184 5.474927 2.561857 -0.384460 -0.470350 -0.009790 17.965905 -11.099948 2.763144 -3.109199 -1.823701 -0.187543 5.385072 -6.133251 15.252639 -0.284114 -4.312676 2.886207 -0.397710 0.072950 0.190140 -2.237753 -0.979232 -7.818028 2.962028 12.428655 10.724948 20.696119 12.659930 -2.308549 -4.974113 13.371641 -14.464019 23.974799 -1.678736 38.726913 -4.276690 14.204520 8.325140 16.805636 -2.063750 4.934270 21.874478 6.768652 0.995292 20.641862 -9.716110 0.465297 -4.493139 3.618579 0.041310 0.201170 0.045310 -0.139860 -5.732695 -9.608931 4.801608 62.872262 -14.771925 -16.371126 -15.219694 21.824923 -2.392081 2.701930 -1.302872 -0.036160 -0.231250 0.107050 -0.087670 
-0.020380 18.319130 2.012440 172.977226 68.502761 173.003856 -15.250531 13.228062 3.967391 5.772871 -2.397813 -21.338999 -19.213568 10.763291 19.215215 0.606106 5.542445 2.536199 -0.404270 -0.493980 -0.022230 17.966438 -11.107650 2.783225 -2.850685 -1.676590 -0.939995 5.116393 -6.054139 15.784739 -0.262349 -4.223453 2.918647 -0.422080 0.074580 0.189320 -2.253259 -1.085272 -7.934804 4.165738 12.237489 12.062078 19.276057 13.538552 -4.287051 -5.077059 13.457762 -14.939755 24.484577 -1.624953 39.515222 -4.089590 14.740230 9.316390 18.154325 -1.355393 4.679449 20.551686 5.341586 0.569186 21.169199 -10.974316 0.439028 -4.496845 3.676754 0.045490 0.198230 0.049260 -0.138860 -7.141929 -11.071381 4.748102 64.804671 -15.329566 -17.137103 -15.354313 23.291162 -2.549387 2.697183 -1.290716 -0.035280 -0.240410 0.108500 -0.083350 
-0.022470 18.267430 2.018970 172.362981 69.564370 173.485165 -15.206913 13.175453 4.174068 6.227561 -2.817142 -22.851314 -20.360312 11.099110 19.385445 0.669046 5.684679 2.491860 -0.437210 -0.517330 -0.041380 17.980563 -11.148866 2.748685 -2.752562 -1.382583 -2.558322 4.909694 -6.025206 16.904100 -0.223049 -4.125153 2.953129 -0.443850 0.089880 0.183100 -2.414845 -0.784983 -7.973155 4.267837 12.166832 13.436420 16.940600 14.804552 -7.703563 -5.993205 14.453137 -15.880330 27.393943 -0.907982 37.229955 -3.148120 16.012540 9.902190 23.037745 0.738180 3.586177 18.630951 3.198715 -0.333620 19.719604 -14.007652 0.541426 -4.489377 3.924615 0.030670 0.208170 0.043670 -0.139930 -11.167210 -16.774139 3.780320 69.653528 -15.544299 -18.355424 -14.750979 26.919376 -2.829959 2.666546 -1.276950 -0.040370 -0.250810 0.106450 -0.075310 
